<svg width="165" height="58" viewBox="0 0 165 58" fill="none" xmlns="http://www.w3.org/2000/svg">
<g filter="url(#filter0_d_1_4)">
<path d="M5.43182 48V39.9091L22.4091 25.0455C23.6818 23.8939 24.7652 22.8409 25.6591 21.8864C26.553 20.9167 27.2348 19.947 27.7045 18.9773C28.1742 17.9924 28.4091 16.9242 28.4091 15.7727C28.4091 14.4848 28.1288 13.3864 27.5682 12.4773C27.0076 11.553 26.2348 10.8409 25.25 10.3409C24.2652 9.84091 23.1364 9.59091 21.8636 9.59091C20.5758 9.59091 19.447 9.85606 18.4773 10.3864C17.5076 10.9015 16.75 11.6515 16.2045 12.6364C15.6742 13.6212 15.4091 14.8182 15.4091 16.2273H4.75C4.75 13.0606 5.46212 10.3258 6.88636 8.02273C8.31061 5.7197 10.3106 3.94697 12.8864 2.70454C15.4773 1.44697 18.4848 0.81818 21.9091 0.81818C25.4394 0.81818 28.5076 1.40909 31.1136 2.59091C33.7197 3.77273 35.7348 5.42424 37.1591 7.54545C38.5985 9.65151 39.3182 12.0985 39.3182 14.8864C39.3182 16.6591 38.9621 18.4167 38.25 20.1591C37.5379 21.9015 36.2576 23.8258 34.4091 25.9318C32.5758 28.0379 29.9697 30.5606 26.5909 33.5L21.0227 38.6364V38.9318H39.8864V48H5.43182ZM65.4943 49.1364C61.4337 49.1364 57.9337 48.1742 54.9943 46.25C52.0549 44.3106 49.7898 41.5303 48.1989 37.9091C46.608 34.2727 45.8201 29.9015 45.8352 24.7955C45.8504 19.6894 46.6458 15.3561 48.2216 11.7955C49.8125 8.21969 52.0701 5.5 54.9943 3.63636C57.9337 1.75757 61.4337 0.81818 65.4943 0.81818C69.5549 0.81818 73.0549 1.75757 75.9943 3.63636C78.9489 5.5 81.2216 8.21969 82.8125 11.7955C84.4034 15.3712 85.1913 19.7045 85.1761 24.7955C85.1761 29.9167 84.3807 34.2955 82.7898 37.9318C81.1989 41.5682 78.9337 44.3485 75.9943 46.2727C73.0701 48.1818 69.5701 49.1364 65.4943 49.1364ZM65.4943 39.9318C67.9186 39.9318 69.8807 38.697 71.3807 36.2273C72.8807 33.7424 73.6231 29.9318 73.608 24.7955C73.608 21.4318 73.267 18.6591 72.5852 16.4773C71.9034 14.2803 70.9564 12.6439 69.7443 11.5682C68.5322 10.4924 67.1155 9.95454 65.4943 9.95454C63.0852 9.95454 61.1383 11.1742 59.6534 13.6136C58.1686 16.0379 57.4186 19.7652 57.4034 24.7955C57.3883 28.2045 57.714 31.0303 58.3807 33.2727C59.0625 35.5152 60.017 37.1894 61.2443 38.2955C62.4716 39.3864 63.8883 39.9318 65.4943 39.9318ZM113.142 1.45454V48H101.915V11.9545H101.642L91.233 18.3182V8.59091L102.71 1.45454H113.142ZM141.614 48.6364C137.992 48.6364 134.758 48.0606 131.909 46.9091C129.076 45.7424 126.848 44.1667 125.227 42.1818C123.621 40.1818 122.818 37.9242 122.818 35.4091C122.818 33.4848 123.28 31.7197 124.205 30.1136C125.129 28.5076 126.379 27.1742 127.955 26.1136C129.545 25.0379 131.318 24.3485 133.273 24.0455V23.6818C130.712 23.2121 128.614 22.0227 126.977 20.1136C125.356 18.2045 124.545 15.9697 124.545 13.4091C124.545 10.9848 125.28 8.82576 126.75 6.93182C128.235 5.03788 130.258 3.54545 132.818 2.45454C135.394 1.36363 138.326 0.81818 141.614 0.81818C144.902 0.81818 147.826 1.36363 150.386 2.45454C152.962 3.54545 154.985 5.03788 156.455 6.93182C157.939 8.82576 158.682 10.9848 158.682 13.4091C158.682 15.9848 157.856 18.2273 156.205 20.1364C154.568 22.0303 152.485 23.2121 149.955 23.6818V24.0455C151.894 24.3485 153.652 25.0379 155.227 26.1136C156.818 27.1742 158.076 28.5076 159 30.1136C159.939 31.7197 160.409 33.4848 160.409 35.4091C160.409 37.9242 159.598 40.1818 157.977 42.1818C156.356 44.1667 154.129 45.7424 151.295 46.9091C148.477 48.0606 145.25 48.6364 141.614 48.6364ZM141.614 40.6591C142.992 40.6591 144.205 40.4015 145.25 39.8864C146.295 39.3561 147.114 38.6212 147.705 37.6818C148.311 36.7424 148.614 35.6818 148.614 34.5C148.614 33.2879 148.311 32.2121 147.705 31.2727C147.098 30.3333 146.265 29.5985 145.205 29.0682C144.159 28.5227 142.962 28.25 141.614 28.25C140.28 28.25 139.083 28.5227 138.023 29.0682C136.962 29.5985 136.129 30.3333 135.523 31.2727C134.917 32.2121 134.614 33.2879 134.614 34.5C134.614 35.6818 134.909 36.7424 135.5 37.6818C136.106 38.6061 136.932 39.3333 137.977 39.8636C139.038 40.3939 140.25 40.6591 141.614 40.6591ZM141.614 20.3182C142.795 20.3182 143.841 20.0758 144.75 19.5909C145.674 19.1061 146.394 18.4318 146.909 17.5682C147.439 16.7045 147.705 15.7273 147.705 14.6364C147.705 13.5455 147.439 12.5833 146.909 11.75C146.394 10.9167 145.682 10.2652 144.773 9.79545C143.864 9.3106 142.811 9.06818 141.614 9.06818C140.432 9.06818 139.379 9.3106 138.455 9.79545C137.53 10.2652 136.811 10.9167 136.295 11.75C135.78 12.5833 135.523 13.5455 135.523 14.6364C135.523 15.7273 135.78 16.7045 136.295 17.5682C136.826 18.4167 137.553 19.0909 138.477 19.5909C139.402 20.0758 140.447 20.3182 141.614 20.3182Z" fill="white"/>
<path d="M5.43182 48H4.43182V49H5.43182V48ZM5.43182 39.9091L4.7731 39.1567L4.43182 39.4555V39.9091H5.43182ZM22.4091 25.0455L23.0678 25.7978L23.074 25.7925L23.08 25.787L22.4091 25.0455ZM25.6591 21.8864L26.389 22.5699L26.3943 22.5642L25.6591 21.8864ZM27.7045 18.9773L28.6045 19.4132L28.6071 19.4077L27.7045 18.9773ZM27.5682 12.4773L26.7131 12.9959L26.717 13.0022L27.5682 12.4773ZM25.25 10.3409L24.7973 11.2326L25.25 10.3409ZM18.4773 10.3864L18.9465 11.2695L18.9571 11.2637L18.4773 10.3864ZM16.2045 12.6364L15.3297 12.1518L15.3241 12.1623L16.2045 12.6364ZM15.4091 16.2273V17.2273H16.4091V16.2273H15.4091ZM4.75 16.2273H3.75V17.2273H4.75V16.2273ZM6.88636 8.02273L7.73687 8.5487L7.73687 8.5487L6.88636 8.02273ZM12.8864 2.70454L13.3208 3.60524L13.323 3.60417L12.8864 2.70454ZM31.1136 2.59091L31.5266 1.68018L31.1136 2.59091ZM37.1591 7.54545L36.3288 8.10291L36.3335 8.10971L37.1591 7.54545ZM38.25 20.1591L37.3243 19.7808L38.25 20.1591ZM34.4091 25.9318L33.6575 25.2722L33.6548 25.2752L34.4091 25.9318ZM26.5909 33.5L25.9346 32.7455L25.9236 32.7551L25.9129 32.765L26.5909 33.5ZM21.0227 38.6364L20.3447 37.9013L20.0227 38.1983V38.6364H21.0227ZM21.0227 38.9318H20.0227V39.9318H21.0227V38.9318ZM39.8864 38.9318H40.8864V37.9318H39.8864V38.9318ZM39.8864 48V49H40.8864V48H39.8864ZM6.43182 48V39.9091H4.43182V48H6.43182ZM6.09054 40.6615L23.0678 25.7978L21.7504 24.2931L4.7731 39.1567L6.09054 40.6615ZM23.08 25.787C24.3673 24.6223 25.4714 23.5497 26.389 22.5699L24.9292 21.2028C24.0589 22.1321 22.9964 23.1656 21.7382 24.3039L23.08 25.787ZM26.3943 22.5642C27.3405 21.5379 28.0838 20.4883 28.6045 19.4132L26.8046 18.5413C26.3859 19.4056 25.7656 20.2955 24.9238 21.2086L26.3943 22.5642ZM28.6071 19.4077C29.1445 18.281 29.4091 17.0648 29.4091 15.7727H27.4091C27.4091 16.7837 27.204 17.7038 26.8019 18.5468L28.6071 19.4077ZM29.4091 15.7727C29.4091 14.3378 29.0956 13.049 28.4194 11.9524L26.717 13.0022C27.162 13.7237 27.4091 14.6319 27.4091 15.7727H29.4091ZM28.4232 11.9587C27.7637 10.8714 26.85 10.0317 25.7027 9.44924L24.7973 11.2326C25.6197 11.6501 26.2515 12.2347 26.7132 12.9959L28.4232 11.9587ZM25.7027 9.44924C24.5576 8.86789 23.2696 8.59091 21.8636 8.59091V10.5909C23.0031 10.5909 23.9727 10.8139 24.7973 11.2326L25.7027 9.44924ZM21.8636 8.59091C20.4359 8.59091 19.1369 8.88584 17.9975 9.50899L18.9571 11.2637C19.757 10.8263 20.7156 10.5909 21.8636 10.5909V8.59091ZM18.0081 9.50325C16.863 10.1116 15.9665 11.0022 15.3298 12.1519L17.0793 13.1209C17.5335 12.3008 18.1522 11.6914 18.9464 11.2695L18.0081 9.50325ZM15.3241 12.1623C14.6975 13.3259 14.4091 14.6948 14.4091 16.2273H16.4091C16.4091 14.9415 16.651 13.9165 17.085 13.1105L15.3241 12.1623ZM15.4091 15.2273H4.75V17.2273H15.4091V15.2273ZM5.75 16.2273C5.75 13.2144 6.4259 10.6686 7.73687 8.5487L6.03586 7.49676C4.49834 9.98296 3.75 12.9068 3.75 16.2273H5.75ZM7.73687 8.5487C9.05521 6.41691 10.9065 4.76979 13.3208 3.60524L12.4519 1.80385C9.7147 3.12415 7.56601 5.02248 6.03586 7.49676L7.73687 8.5487ZM13.323 3.60417C15.7545 2.42399 18.6078 1.81818 21.9091 1.81818V-0.18182C18.3619 -0.18182 15.2001 0.469946 12.4497 1.80492L13.323 3.60417ZM21.9091 1.81818C25.3294 1.81818 28.2509 2.39073 30.7006 3.50164L31.5266 1.68018C28.7642 0.427454 25.5494 -0.18182 21.9091 -0.18182V1.81818ZM30.7006 3.50164C33.1584 4.6162 35.0203 6.15389 36.3289 8.10289L37.9893 6.98802C36.4494 4.6946 34.281 2.92926 31.5266 1.68018L30.7006 3.50164ZM36.3335 8.10971C37.6487 10.0341 38.3182 12.2803 38.3182 14.8864H40.3182C40.3182 11.9167 39.5483 9.26895 37.9847 6.98119L36.3335 8.10971ZM38.3182 14.8864C38.3182 16.5215 37.9904 18.1509 37.3243 19.7808L39.1757 20.5374C39.9338 18.6824 40.3182 16.7967 40.3182 14.8864H38.3182ZM37.3243 19.7808C36.6694 21.3832 35.465 23.2128 33.6575 25.2722L35.1607 26.5915C37.0502 24.4387 38.4064 22.4198 39.1757 20.5374L37.3243 19.7808ZM33.6548 25.2752C31.8643 27.3321 29.2966 29.8207 25.9346 32.7455L27.2473 34.2545C30.6428 31.3005 33.2872 28.7436 35.1633 26.5884L33.6548 25.2752ZM25.9129 32.765L20.3447 37.9013L21.7008 39.3714L27.2689 34.235L25.9129 32.765ZM20.0227 38.6364V38.9318H22.0227V38.6364H20.0227ZM21.0227 39.9318H39.8864V37.9318H21.0227V39.9318ZM38.8864 38.9318V48H40.8864V38.9318H38.8864ZM39.8864 47H5.43182V49H39.8864V47ZM54.9943 46.25L54.4436 47.0847L54.4466 47.0867L54.9943 46.25ZM48.1989 37.9091L47.2827 38.3099L47.2833 38.3113L48.1989 37.9091ZM45.8352 24.7955L44.8352 24.7925L45.8352 24.7955ZM48.2216 11.7955L47.3079 11.389L47.3071 11.3908L48.2216 11.7955ZM54.9943 3.63636L55.5318 4.47967L55.5329 4.47895L54.9943 3.63636ZM75.9943 3.63636L75.4557 4.47897L75.4608 4.48216L75.9943 3.63636ZM82.8125 11.7955L83.7262 11.389L82.8125 11.7955ZM85.1761 24.7955L84.1761 24.7925V24.7955H85.1761ZM82.7898 37.9318L81.8736 37.531L82.7898 37.9318ZM75.9943 46.2727L76.541 47.1101L76.542 47.1094L75.9943 46.2727ZM71.3807 36.2273L72.2354 36.7464L72.2368 36.7441L71.3807 36.2273ZM73.608 24.7955H72.6079L72.608 24.7984L73.608 24.7955ZM72.5852 16.4773L71.6302 16.7737L71.6307 16.7755L72.5852 16.4773ZM69.7443 11.5682L70.4081 10.8203L69.7443 11.5682ZM59.6534 13.6136L60.5062 14.136L60.5076 14.1336L59.6534 13.6136ZM57.4034 24.7955L58.4034 24.7999L58.4034 24.7985L57.4034 24.7955ZM58.3807 33.2727L57.4221 33.5577L57.4239 33.5636L58.3807 33.2727ZM61.2443 38.2955L60.5748 39.0383L60.58 39.0429L61.2443 38.2955ZM65.4943 48.1364C61.5972 48.1364 58.2945 47.2152 55.542 45.4133L54.4466 47.0867C57.573 49.1333 61.2702 50.1364 65.4943 50.1364V48.1364ZM55.545 45.4153C52.7856 43.5947 50.6377 40.9742 49.1144 37.5069L47.2833 38.3113C48.9418 42.0864 51.3242 45.0265 54.4436 47.0847L55.545 45.4153ZM49.115 37.5083C47.5933 34.0301 46.8204 29.8037 46.8352 24.7984L44.8352 24.7925C44.8198 29.9993 45.6226 34.5154 47.2827 38.3099L49.115 37.5083ZM46.8352 24.7984C46.8501 19.7897 47.6308 15.6014 49.136 12.2001L47.3071 11.3908C45.6608 15.1107 44.8507 19.5891 44.8352 24.7925L46.8352 24.7984ZM49.1352 12.202C50.657 8.78173 52.7938 6.22459 55.5318 4.47967L54.4569 2.79306C51.3464 4.77541 48.968 7.65766 47.3079 11.389L49.1352 12.202ZM55.5329 4.47895C58.2865 2.71889 61.5927 1.81818 65.4943 1.81818V-0.18182C61.2748 -0.18182 57.5809 0.796258 54.4558 2.79378L55.5329 4.47895ZM65.4943 1.81818C69.396 1.81818 72.7021 2.71889 75.4558 4.47895L76.5329 2.79378C73.4077 0.796258 69.7139 -0.18182 65.4943 -0.18182V1.81818ZM75.4608 4.48216C78.2282 6.22776 80.3784 8.78446 81.8988 12.202L83.7262 11.389C82.0648 7.65493 79.6695 4.77223 76.5278 2.79057L75.4608 4.48216ZM81.8988 12.202C83.4179 15.6163 84.191 19.802 84.1761 24.7925L86.1761 24.7984C86.1916 19.6071 85.3889 15.1261 83.7262 11.389L81.8988 12.202ZM84.1761 24.7955C84.1761 29.8171 83.3957 34.052 81.8736 37.531L83.7059 38.3326C85.3657 34.5389 86.1761 30.0162 86.1761 24.7955H84.1761ZM81.8736 37.531C80.3502 41.0132 78.203 43.6316 75.4466 45.4361L76.542 47.1094C79.6644 45.0653 82.0476 42.1232 83.7059 38.3326L81.8736 37.531ZM75.4477 45.4354C72.7117 47.2216 69.4091 48.1364 65.4943 48.1364V50.1364C69.7311 50.1364 73.4285 49.1421 76.541 47.1101L75.4477 45.4354ZM65.4943 40.9318C68.3399 40.9318 70.5948 39.4475 72.2354 36.7464L70.526 35.7082C69.1665 37.9464 67.4972 38.9318 65.4943 38.9318V40.9318ZM72.2368 36.7441C73.8793 34.0232 74.6233 29.9897 74.6079 24.7925L72.608 24.7984C72.6229 29.8739 71.8821 33.4616 70.5246 35.7105L72.2368 36.7441ZM74.608 24.7955C74.608 21.3737 74.2623 18.4913 73.5397 16.179L71.6307 16.7755C72.2718 18.8269 72.608 21.49 72.608 24.7955H74.608ZM73.5403 16.1809C72.8259 13.879 71.8024 12.0577 70.4081 10.8203L69.0805 12.3161C70.1105 13.2302 70.9809 14.6816 71.6302 16.7737L73.5403 16.1809ZM70.4081 10.8203C69.0129 9.58204 67.3601 8.95454 65.4943 8.95454V10.9545C66.871 10.9545 68.0515 11.4028 69.0805 12.3161L70.4081 10.8203ZM65.4943 8.95454C62.6665 8.95454 60.426 10.421 58.7992 13.0937L60.5076 14.1336C61.8505 11.9274 63.504 10.9545 65.4943 10.9545V8.95454ZM58.8007 13.0913C57.1717 15.7509 56.4188 19.7012 56.4034 24.7924L58.4034 24.7985C58.4184 19.8291 59.1654 16.3249 60.5062 14.1359L58.8007 13.0913ZM56.4034 24.791C56.388 28.2576 56.718 31.1891 57.4221 33.5577L59.3392 32.9878C58.71 30.8715 58.3885 28.1515 58.4034 24.7999L56.4034 24.791ZM57.4239 33.5636C58.1376 35.9109 59.1674 37.7698 60.5748 39.0383L61.9138 37.5526C60.8667 36.6089 59.9874 35.1194 59.3374 32.9818L57.4239 33.5636ZM60.58 39.0429C61.9858 40.2925 63.6374 40.9318 65.4943 40.9318V38.9318C64.1391 38.9318 62.9574 38.4803 61.9087 37.548L60.58 39.0429ZM113.142 1.45454H114.142V0.454544H113.142V1.45454ZM113.142 48V49H114.142V48H113.142ZM101.915 48H100.915V49H101.915V48ZM101.915 11.9545H102.915V10.9545H101.915V11.9545ZM101.642 11.9545V10.9545H101.361L101.12 11.1014L101.642 11.9545ZM91.233 18.3182H90.233V20.1016L91.7546 19.1714L91.233 18.3182ZM91.233 8.59091L90.7049 7.74168L90.233 8.03514V8.59091H91.233ZM102.71 1.45454V0.454544H102.425L102.182 0.60532L102.71 1.45454ZM112.142 1.45454V48H114.142V1.45454H112.142ZM113.142 47H101.915V49H113.142V47ZM102.915 48V11.9545H100.915V48H102.915ZM101.915 10.9545H101.642V12.9545H101.915V10.9545ZM101.12 11.1014L90.7114 17.465L91.7546 19.1714L102.164 12.8077L101.12 11.1014ZM92.233 18.3182V8.59091H90.233V18.3182H92.233ZM91.761 9.44013L103.238 2.30377L102.182 0.60532L90.7049 7.74168L91.761 9.44013ZM102.71 2.45454H113.142V0.454544H102.71V2.45454ZM131.909 46.9091L131.528 47.8338L131.534 47.8362L131.909 46.9091ZM125.227 42.1818L124.448 42.808L124.453 42.8144L125.227 42.1818ZM124.205 30.1136L125.071 30.6124L124.205 30.1136ZM127.955 26.1136L128.513 26.9432L128.515 26.942L127.955 26.1136ZM133.273 24.0455L133.426 25.0336L134.273 24.9024V24.0455H133.273ZM133.273 23.6818H134.273V22.8486L133.453 22.6982L133.273 23.6818ZM126.977 20.1136L126.215 20.7609L126.218 20.7644L126.977 20.1136ZM126.75 6.93182L125.963 6.31482L125.96 6.31875L126.75 6.93182ZM132.818 2.45454L132.428 1.53372L132.426 1.53456L132.818 2.45454ZM150.386 2.45454L149.994 3.37453L149.996 3.37536L150.386 2.45454ZM156.455 6.93182L155.665 7.54489L155.668 7.5488L156.455 6.93182ZM156.205 20.1364L155.448 19.4821L155.448 19.4826L156.205 20.1364ZM149.955 23.6818L149.772 22.6986L148.955 22.8504V23.6818H149.955ZM149.955 24.0455H148.955V24.9013L149.8 25.0335L149.955 24.0455ZM155.227 26.1136L154.663 26.9396L154.673 26.9457L155.227 26.1136ZM159 30.1136L158.133 30.6124L158.137 30.6185L159 30.1136ZM157.977 42.1818L158.752 42.8144L158.754 42.8115L157.977 42.1818ZM151.295 46.9091L151.674 47.8348L151.676 47.8338L151.295 46.9091ZM145.25 39.8864L145.692 40.7834L145.702 40.7782L145.25 39.8864ZM147.705 37.6818L146.864 37.1397L146.858 37.1494L147.705 37.6818ZM147.705 31.2727L146.864 31.8149L147.705 31.2727ZM145.205 29.0682L144.742 29.9548L144.75 29.9588L144.757 29.9626L145.205 29.0682ZM138.023 29.0682L138.47 29.9627L138.48 29.9575L138.023 29.0682ZM135.523 31.2727L134.682 30.7306L135.523 31.2727ZM135.5 37.6818L134.654 38.2143L134.659 38.2223L134.664 38.2302L135.5 37.6818ZM137.977 39.8636L137.525 40.7555L137.53 40.7581L137.977 39.8636ZM144.75 19.5909L144.285 18.7053L144.279 18.7086L144.75 19.5909ZM146.909 17.5682L146.057 17.0449L146.05 17.0559L146.909 17.5682ZM146.909 11.75L146.058 12.2759L146.065 12.2869L146.909 11.75ZM144.773 9.79545L144.302 10.6779L144.314 10.6839L144.773 9.79545ZM138.455 9.79545L138.908 10.687L138.919 10.681L138.455 9.79545ZM136.295 11.75L137.146 12.2758L136.295 11.75ZM136.295 17.5682L135.437 18.0805L135.442 18.0894L135.447 18.0982L136.295 17.5682ZM138.477 19.5909L138.001 20.4705L138.013 20.4765L138.477 19.5909ZM141.614 47.6364C138.098 47.6364 134.994 47.0776 132.284 45.982L131.534 47.8362C134.521 49.0436 137.887 49.6364 141.614 49.6364V47.6364ZM132.29 45.9844C129.58 44.8686 127.499 43.3826 126.002 41.5492L124.453 42.8144C126.198 44.9507 128.571 46.6162 131.528 47.8338L132.29 45.9844ZM126.007 41.5557C124.54 39.7294 123.818 37.6917 123.818 35.4091H121.818C121.818 38.1568 122.702 40.6342 124.448 42.808L126.007 41.5557ZM123.818 35.4091C123.818 33.6529 124.238 32.0608 125.071 30.6124L123.338 29.6149C122.323 31.3786 121.818 33.3168 121.818 35.4091H123.818ZM125.071 30.6124C125.917 29.1421 127.061 27.9208 128.513 26.9432L127.396 25.284C125.697 26.4277 124.34 27.873 123.338 29.6149L125.071 30.6124ZM128.515 26.942C129.98 25.9514 131.613 25.3148 133.426 25.0336L133.12 23.0573C131.024 23.3822 129.111 24.1244 127.394 25.2852L128.515 26.942ZM134.273 24.0455V23.6818H132.273V24.0455H134.273ZM133.453 22.6982C131.109 22.2683 129.218 21.1914 127.737 19.4628L126.218 20.7644C128.009 22.854 130.315 24.156 133.092 24.6654L133.453 22.6982ZM127.74 19.4663C126.276 17.7424 125.545 15.7384 125.545 13.4091H123.545C123.545 16.201 124.437 18.6667 126.215 20.7609L127.74 19.4663ZM125.545 13.4091C125.545 11.2041 126.208 9.26131 127.54 7.54488L125.96 6.31875C124.353 8.3902 123.545 10.7656 123.545 13.4091H125.545ZM127.537 7.5488C128.903 5.80702 130.78 4.40979 133.21 3.37453L132.426 1.53456C129.735 2.68112 127.567 4.26873 125.963 6.31483L127.537 7.5488ZM133.208 3.37536C135.641 2.34504 138.437 1.81818 141.614 1.81818V-0.18182C138.215 -0.18182 135.147 0.382227 132.428 1.53373L133.208 3.37536ZM141.614 1.81818C144.791 1.81818 147.578 2.34509 149.994 3.37453L150.778 1.53456C148.073 0.382178 145.012 -0.18182 141.614 -0.18182V1.81818ZM149.996 3.37536C152.441 4.41078 154.316 5.80706 155.665 7.54488L157.245 6.31875C155.654 4.2687 153.483 2.68012 150.776 1.53373L149.996 3.37536ZM155.668 7.5488C157.013 9.2653 157.682 11.2068 157.682 13.4091H159.682C159.682 10.7629 158.865 8.38621 157.242 6.31483L155.668 7.5488ZM157.682 13.4091C157.682 15.7499 156.939 17.7588 155.448 19.4821L156.961 20.7906C158.773 18.6958 159.682 16.2198 159.682 13.4091H157.682ZM155.448 19.4826C153.964 21.1995 152.086 22.2691 149.772 22.6986L150.137 24.665C152.884 24.1552 155.172 22.8611 156.961 20.7901L155.448 19.4826ZM148.955 23.6818V24.0455H150.955V23.6818H148.955ZM149.8 25.0335C151.597 25.3142 153.214 25.95 154.663 26.9395L155.791 25.2877C154.089 24.1257 152.191 23.3827 150.109 23.0574L149.8 25.0335ZM154.673 26.9457C156.139 27.9236 157.288 29.1443 158.133 30.6124L159.867 29.6149C158.863 27.8708 157.497 26.4249 155.782 25.2816L154.673 26.9457ZM158.137 30.6185C158.983 32.066 159.409 33.656 159.409 35.4091H161.409C161.409 33.3137 160.895 31.3734 159.863 29.6088L158.137 30.6185ZM159.409 35.4091C159.409 37.6891 158.681 39.7257 157.2 41.5521L158.754 42.8115C160.516 40.638 161.409 38.1593 161.409 35.4091H159.409ZM157.203 41.5492C155.705 43.3826 153.625 44.8686 150.915 45.9844L151.676 47.8338C154.633 46.6162 157.007 44.9507 158.752 42.8144L157.203 41.5492ZM150.917 45.9834C148.24 47.0773 145.145 47.6364 141.614 47.6364V49.6364C145.355 49.6364 148.715 49.0439 151.674 47.8348L150.917 45.9834ZM141.614 41.6591C143.118 41.6591 144.486 41.3776 145.692 40.7834L144.808 38.9893C143.923 39.4254 142.867 39.6591 141.614 39.6591V41.6591ZM145.702 40.7782C146.9 40.1708 147.858 39.3157 148.551 38.2143L146.858 37.1494C146.369 37.9268 145.691 38.5413 144.798 38.9945L145.702 40.7782ZM148.545 38.2239C149.261 37.1135 149.614 35.8626 149.614 34.5H147.614C147.614 35.501 147.36 36.3713 146.864 37.1397L148.545 38.2239ZM149.614 34.5C149.614 33.1125 149.264 31.8452 148.545 30.7306L146.864 31.8149C147.357 32.579 147.614 33.4633 147.614 34.5H149.614ZM148.545 30.7306C147.836 29.6315 146.862 28.7791 145.652 28.1738L144.757 29.9626C145.668 30.4179 146.361 31.0352 146.864 31.8149L148.545 30.7306ZM145.667 28.1816C144.46 27.5516 143.1 27.25 141.614 27.25V29.25C142.824 29.25 143.859 29.4939 144.742 29.9548L145.667 28.1816ZM141.614 27.25C140.14 27.25 138.783 27.5525 137.565 28.1789L138.48 29.9575C139.383 29.493 140.42 29.25 141.614 29.25V27.25ZM137.576 28.1738C136.365 28.7791 135.392 29.6315 134.682 30.7306L136.363 31.8149C136.866 31.0352 137.559 30.4179 138.47 29.9626L137.576 28.1738ZM134.682 30.7306C133.963 31.8452 133.614 33.1125 133.614 34.5H135.614C135.614 33.4633 135.87 32.579 136.363 31.8149L134.682 30.7306ZM133.614 34.5C133.614 35.8574 133.956 37.1049 134.654 38.2143L136.346 37.1494C135.862 36.3799 135.614 35.5062 135.614 34.5H133.614ZM134.664 38.2302C135.371 39.3094 136.333 40.1511 137.525 40.7555L138.43 38.9718C137.53 38.5155 136.841 37.9027 136.336 37.1335L134.664 38.2302ZM137.53 40.7581C138.749 41.3675 140.118 41.6591 141.614 41.6591V39.6591C140.382 39.6591 139.327 39.4203 138.424 38.9692L137.53 40.7581ZM141.614 21.3182C142.935 21.3182 144.147 21.046 145.221 20.4733L144.279 18.7086C143.535 19.1055 142.656 19.3182 141.614 19.3182V21.3182ZM145.215 20.4765C146.296 19.9093 147.155 19.1087 147.768 18.0805L146.05 17.0559C145.633 17.755 145.053 18.3028 144.285 18.7054L145.215 20.4765ZM147.761 18.0914C148.396 17.0583 148.705 15.8973 148.705 14.6364H146.705C146.705 15.5572 146.483 16.3508 146.057 17.0449L147.761 18.0914ZM148.705 14.6364C148.705 13.3758 148.396 12.2234 147.753 11.2131L146.065 12.2869C146.483 12.9432 146.705 13.7151 146.705 14.6364H148.705ZM147.76 11.2242C147.145 10.2297 146.294 9.45602 145.232 8.90703L144.314 10.6839C145.069 11.0743 145.643 11.6036 146.059 12.2758L147.76 11.2242ZM145.243 8.9131C144.168 8.33936 142.948 8.06818 141.614 8.06818V10.0682C142.673 10.0682 143.56 10.2818 144.302 10.6778L145.243 8.9131ZM141.614 8.06818C140.292 8.06818 139.076 8.34043 137.99 8.9099L138.919 10.681C139.682 10.2808 140.572 10.0682 141.614 10.0682V8.06818ZM138.001 8.90397C136.924 9.45173 136.062 10.2256 135.445 11.2242L137.146 12.2758C137.559 11.6077 138.137 11.0786 138.908 10.6869L138.001 8.90397ZM135.445 11.2242C134.821 12.233 134.523 13.3814 134.523 14.6364H136.523C136.523 13.7095 136.739 12.9337 137.146 12.2758L135.445 11.2242ZM134.523 14.6364C134.523 15.8918 134.821 17.0489 135.437 18.0805L137.154 17.0559C136.739 16.3602 136.523 15.5627 136.523 14.6364H134.523ZM135.447 18.0982C136.074 19.1009 136.933 19.8924 138.001 20.4705L138.953 18.7114C138.173 18.2894 137.577 17.7324 137.143 17.0382L135.447 18.0982ZM138.013 20.4765C139.096 21.045 140.304 21.3182 141.614 21.3182V19.3182C140.589 19.3182 139.707 19.1065 138.942 18.7054L138.013 20.4765Z" fill="white"/>
</g>
<defs>
<filter id="filter0_d_1_4" x="0.75" y="0.818176" width="163.659" height="56.3182" filterUnits="userSpaceOnUse" color-interpolation-filters="sRGB">
<feFlood flood-opacity="0" result="BackgroundImageFix"/>
<feColorMatrix in="SourceAlpha" type="matrix" values="0 0 0 0 0 0 0 0 0 0 0 0 0 0 0 0 0 0 127 0" result="hardAlpha"/>
<feOffset dy="4"/>
<feGaussianBlur stdDeviation="2"/>
<feComposite in2="hardAlpha" operator="out"/>
<feColorMatrix type="matrix" values="0 0 0 0 0 0 0 0 0 0 0 0 0 0 0 0 0 0 0.25 0"/>
<feBlend mode="normal" in2="BackgroundImageFix" result="effect1_dropShadow_1_4"/>
<feBlend mode="normal" in="SourceGraphic" in2="effect1_dropShadow_1_4" result="shape"/>
</filter>
</defs>
</svg>
