<svg width="176" height="58" viewBox="0 0 176 58" fill="none" xmlns="http://www.w3.org/2000/svg">
<g filter="url(#filter0_d_1_5)">
<path d="M5.43182 48V39.9091L22.4091 25.0455C23.6818 23.8939 24.7652 22.8409 25.6591 21.8864C26.553 20.9167 27.2348 19.947 27.7045 18.9773C28.1742 17.9924 28.4091 16.9242 28.4091 15.7727C28.4091 14.4848 28.1288 13.3864 27.5682 12.4773C27.0076 11.553 26.2348 10.8409 25.25 10.3409C24.2652 9.84091 23.1364 9.59091 21.8636 9.59091C20.5758 9.59091 19.447 9.85606 18.4773 10.3864C17.5076 10.9015 16.75 11.6515 16.2045 12.6364C15.6742 13.6212 15.4091 14.8182 15.4091 16.2273H4.75C4.75 13.0606 5.46212 10.3258 6.88636 8.02273C8.31061 5.7197 10.3106 3.94697 12.8864 2.70454C15.4773 1.44697 18.4848 0.81818 21.9091 0.81818C25.4394 0.81818 28.5076 1.40909 31.1136 2.59091C33.7197 3.77273 35.7348 5.42424 37.1591 7.54545C38.5985 9.65151 39.3182 12.0985 39.3182 14.8864C39.3182 16.6591 38.9621 18.4167 38.25 20.1591C37.5379 21.9015 36.2576 23.8258 34.4091 25.9318C32.5758 28.0379 29.9697 30.5606 26.5909 33.5L21.0227 38.6364V38.9318H39.8864V48H5.43182ZM65.4943 49.1364C61.4337 49.1364 57.9337 48.1742 54.9943 46.25C52.0549 44.3106 49.7898 41.5303 48.1989 37.9091C46.608 34.2727 45.8201 29.9015 45.8352 24.7955C45.8504 19.6894 46.6458 15.3561 48.2216 11.7955C49.8125 8.21969 52.0701 5.5 54.9943 3.63636C57.9337 1.75757 61.4337 0.81818 65.4943 0.81818C69.5549 0.81818 73.0549 1.75757 75.9943 3.63636C78.9489 5.5 81.2216 8.21969 82.8125 11.7955C84.4034 15.3712 85.1913 19.7045 85.1761 24.7955C85.1761 29.9167 84.3807 34.2955 82.7898 37.9318C81.1989 41.5682 78.9337 44.3485 75.9943 46.2727C73.0701 48.1818 69.5701 49.1364 65.4943 49.1364ZM65.4943 39.9318C67.9186 39.9318 69.8807 38.697 71.3807 36.2273C72.8807 33.7424 73.6231 29.9318 73.608 24.7955C73.608 21.4318 73.267 18.6591 72.5852 16.4773C71.9034 14.2803 70.9564 12.6439 69.7443 11.5682C68.5322 10.4924 67.1155 9.95454 65.4943 9.95454C63.0852 9.95454 61.1383 11.1742 59.6534 13.6136C58.1686 16.0379 57.4186 19.7652 57.4034 24.7955C57.3883 28.2045 57.714 31.0303 58.3807 33.2727C59.0625 35.5152 60.017 37.1894 61.2443 38.2955C62.4716 39.3864 63.8883 39.9318 65.4943 39.9318ZM91.6193 48V39.9091L108.597 25.0455C109.869 23.8939 110.953 22.8409 111.847 21.8864C112.741 20.9167 113.422 19.947 113.892 18.9773C114.362 17.9924 114.597 16.9242 114.597 15.7727C114.597 14.4848 114.316 13.3864 113.756 12.4773C113.195 11.553 112.422 10.8409 111.438 10.3409C110.453 9.84091 109.324 9.59091 108.051 9.59091C106.763 9.59091 105.634 9.85606 104.665 10.3864C103.695 10.9015 102.938 11.6515 102.392 12.6364C101.862 13.6212 101.597 14.8182 101.597 16.2273H90.9375C90.9375 13.0606 91.6496 10.3258 93.0739 8.02273C94.4981 5.7197 96.4981 3.94697 99.0739 2.70454C101.665 1.44697 104.672 0.81818 108.097 0.81818C111.627 0.81818 114.695 1.40909 117.301 2.59091C119.907 3.77273 121.922 5.42424 123.347 7.54545C124.786 9.65151 125.506 12.0985 125.506 14.8864C125.506 16.6591 125.15 18.4167 124.438 20.1591C123.725 21.9015 122.445 23.8258 120.597 25.9318C118.763 28.0379 116.157 30.5606 112.778 33.5L107.21 38.6364V38.9318H126.074V48H91.6193ZM151.682 49.1364C147.621 49.1364 144.121 48.1742 141.182 46.25C138.242 44.3106 135.977 41.5303 134.386 37.9091C132.795 34.2727 132.008 29.9015 132.023 24.7955C132.038 19.6894 132.833 15.3561 134.409 11.7955C136 8.21969 138.258 5.5 141.182 3.63636C144.121 1.75757 147.621 0.81818 151.682 0.81818C155.742 0.81818 159.242 1.75757 162.182 3.63636C165.136 5.5 167.409 8.21969 169 11.7955C170.591 15.3712 171.379 19.7045 171.364 24.7955C171.364 29.9167 170.568 34.2955 168.977 37.9318C167.386 41.5682 165.121 44.3485 162.182 46.2727C159.258 48.1818 155.758 49.1364 151.682 49.1364ZM151.682 39.9318C154.106 39.9318 156.068 38.697 157.568 36.2273C159.068 33.7424 159.811 29.9318 159.795 24.7955C159.795 21.4318 159.455 18.6591 158.773 16.4773C158.091 14.2803 157.144 12.6439 155.932 11.5682C154.72 10.4924 153.303 9.95454 151.682 9.95454C149.273 9.95454 147.326 11.1742 145.841 13.6136C144.356 16.0379 143.606 19.7652 143.591 24.7955C143.576 28.2045 143.902 31.0303 144.568 33.2727C145.25 35.5152 146.205 37.1894 147.432 38.2955C148.659 39.3864 150.076 39.9318 151.682 39.9318Z" fill="white"/>
<path d="M5.43182 48H4.93182V48.5H5.43182V48ZM5.43182 39.9091L5.10246 39.5329L4.93182 39.6823V39.9091H5.43182ZM22.4091 25.0455L22.7385 25.4217L22.7445 25.4162L22.4091 25.0455ZM25.6591 21.8864L26.0241 22.2281L26.0267 22.2253L25.6591 21.8864ZM27.7045 18.9773L28.1545 19.1952L28.1558 19.1925L27.7045 18.9773ZM27.5682 12.4773L27.1407 12.7366L27.1426 12.7397L27.5682 12.4773ZM25.25 10.3409L25.0237 10.7867L25.25 10.3409ZM18.4773 10.3864L18.7119 10.828L18.7172 10.825L18.4773 10.3864ZM16.2045 12.6364L15.7671 12.3941L15.7643 12.3993L16.2045 12.6364ZM15.4091 16.2273V16.7273H15.9091V16.2273H15.4091ZM4.75 16.2273H4.25V16.7273H4.75V16.2273ZM6.88636 8.02273L7.31162 8.28571H7.31162L6.88636 8.02273ZM12.8864 2.70454L13.1036 3.15489L13.1047 3.15436L12.8864 2.70454ZM31.1136 2.59091L31.3201 2.13554L31.1136 2.59091ZM37.1591 7.54545L36.744 7.82418L36.7463 7.82758L37.1591 7.54545ZM38.25 20.1591L37.7872 19.9699L38.25 20.1591ZM34.4091 25.9318L34.0333 25.602L34.032 25.6035L34.4091 25.9318ZM26.5909 33.5L26.2627 33.1228L26.2572 33.1275L26.2519 33.1325L26.5909 33.5ZM21.0227 38.6364L20.6837 38.2688L20.5227 38.4173V38.6364H21.0227ZM21.0227 38.9318H20.5227V39.4318H21.0227V38.9318ZM39.8864 38.9318H40.3864V38.4318H39.8864V38.9318ZM39.8864 48V48.5H40.3864V48H39.8864ZM5.93182 48V39.9091H4.93182V48H5.93182ZM5.76118 40.2853L22.7385 25.4216L22.0797 24.6693L5.10246 39.5329L5.76118 40.2853ZM22.7445 25.4162C24.0245 24.2581 25.1183 23.1953 26.024 22.2281L25.2941 21.5446C24.412 22.4865 23.3391 23.5298 22.0736 24.6747L22.7445 25.4162ZM26.0267 22.2253C26.9467 21.2273 27.6593 20.2176 28.1545 19.1952L27.2546 18.7593C26.8104 19.6763 26.1593 20.6061 25.2915 21.5475L26.0267 22.2253ZM28.1558 19.1925C28.6594 18.1367 28.9091 16.9945 28.9091 15.7727H27.9091C27.9091 16.854 27.6891 17.8481 27.2532 18.762L28.1558 19.1925ZM28.9091 15.7727C28.9091 14.4113 28.6122 13.2177 27.9938 12.2148L27.1426 12.7397C27.6454 13.555 27.9091 14.5584 27.9091 15.7727H28.9091ZM27.9957 12.218C27.3856 11.2122 26.5424 10.4363 25.4763 9.89507L25.0237 10.7867C25.9273 11.2455 26.6295 11.8939 27.1407 12.7366L27.9957 12.218ZM25.4763 9.89507C24.4114 9.3544 23.203 9.09091 21.8636 9.09091V10.0909C23.0697 10.0909 24.1189 10.3274 25.0237 10.7867L25.4763 9.89507ZM21.8636 9.09091C20.5058 9.09091 19.292 9.37095 18.2374 9.94768L18.7172 10.825C19.602 10.3412 20.6457 10.0909 21.8636 10.0909V9.09091ZM18.2427 9.94481C17.1853 10.5066 16.3582 11.3269 15.7671 12.3941L16.6419 12.8786C17.1418 11.9762 17.8299 11.2965 18.7119 10.8279L18.2427 9.94481ZM15.7643 12.3993C15.1859 13.4735 14.9091 14.7565 14.9091 16.2273H15.9091C15.9091 14.8799 16.1626 13.7689 16.6448 12.8734L15.7643 12.3993ZM15.4091 15.7273H4.75V16.7273H15.4091V15.7273ZM5.25 16.2273C5.25 13.1375 5.94401 10.4972 7.31162 8.28571L6.46111 7.75974C4.98023 10.1544 4.25 12.9837 4.25 16.2273H5.25ZM7.31162 8.28571C8.68291 6.0683 10.6086 4.35838 13.1036 3.15489L12.6691 2.2542C10.0127 3.53556 7.93831 5.37109 6.46111 7.75974L7.31162 8.28571ZM13.1047 3.15436C15.6159 1.93548 18.5463 1.31818 21.9091 1.31818V0.31818C18.4234 0.31818 15.3387 0.958457 12.668 2.25473L13.1047 3.15436ZM21.9091 1.31818C25.3844 1.31818 28.3793 1.89991 30.9071 3.04627L31.3201 2.13554C28.6359 0.918271 25.4944 0.31818 21.9091 0.31818V1.31818ZM30.9071 3.04627C33.439 4.19446 35.3776 5.78906 36.744 7.82417L37.5742 7.26674C36.0921 5.05942 34.0004 3.35099 31.3201 2.13554L30.9071 3.04627ZM36.7463 7.82758C38.1236 9.8428 38.8182 12.1894 38.8182 14.8864H39.8182C39.8182 12.0076 39.0734 9.46023 37.5719 7.26332L36.7463 7.82758ZM38.8182 14.8864C38.8182 16.5903 38.4763 18.2838 37.7872 19.9699L38.7128 20.3483C39.448 18.5495 39.8182 16.7279 39.8182 14.8864H38.8182ZM37.7872 19.9699C37.1036 21.6424 35.8613 23.5193 34.0333 25.602L34.7849 26.2616C36.6539 24.1322 37.9721 22.1606 38.7128 20.3483L37.7872 19.9699ZM34.032 25.6035C32.22 27.685 29.6331 30.1907 26.2627 33.1228L26.9191 33.8772C30.3062 30.9305 32.9315 28.3908 34.7862 26.2601L34.032 25.6035ZM26.2519 33.1325L20.6837 38.2688L21.3617 39.0039L26.9299 33.8675L26.2519 33.1325ZM20.5227 38.6364V38.9318H21.5227V38.6364H20.5227ZM21.0227 39.4318H39.8864V38.4318H21.0227V39.4318ZM39.3864 38.9318V48H40.3864V38.9318H39.3864ZM39.8864 47.5H5.43182V48.5H39.8864V47.5ZM54.9943 46.25L54.719 46.6673L54.7205 46.6683L54.9943 46.25ZM48.1989 37.9091L47.7408 38.1095L47.7411 38.1102L48.1989 37.9091ZM45.8352 24.7955L45.3352 24.794L45.8352 24.7955ZM48.2216 11.7955L47.7648 11.5922L47.7644 11.5931L48.2216 11.7955ZM54.9943 3.63636L55.263 4.05802L55.2636 4.05766L54.9943 3.63636ZM75.9943 3.63636L75.725 4.05766L75.7276 4.05926L75.9943 3.63636ZM82.8125 11.7955L83.2693 11.5922L82.8125 11.7955ZM85.1761 24.7955L84.6761 24.794V24.7955H85.1761ZM82.7898 37.9318L82.3317 37.7314L82.7898 37.9318ZM75.9943 46.2727L76.2677 46.6914L76.2682 46.6911L75.9943 46.2727ZM71.3807 36.2273L71.808 36.4868L71.8087 36.4857L71.3807 36.2273ZM73.608 24.7955H73.108V24.7969L73.608 24.7955ZM72.5852 16.4773L72.1077 16.6255L72.108 16.6264L72.5852 16.4773ZM69.7443 11.5682L70.0762 11.1942L69.7443 11.5682ZM59.6534 13.6136L60.0798 13.8748L60.0805 13.8736L59.6534 13.6136ZM57.4034 24.7955L57.9034 24.7977L57.9034 24.797L57.4034 24.7955ZM58.3807 33.2727L57.9014 33.4152L57.9023 33.4182L58.3807 33.2727ZM61.2443 38.2955L60.9096 38.6669L60.9121 38.6692L61.2443 38.2955ZM65.4943 48.6364C61.5155 48.6364 58.1141 47.6947 55.2682 45.8317L54.7205 46.6683C57.7533 48.6538 61.352 49.6364 65.4943 49.6364V48.6364ZM55.2697 45.8327C52.4203 43.9526 50.2137 41.2523 48.6566 37.708L47.7411 38.1102C49.3658 41.8083 51.6896 44.6686 54.719 46.6673L55.2697 45.8327ZM48.6569 37.7087C47.1006 34.1514 46.3202 29.8526 46.3352 24.7969L45.3352 24.794C45.3199 29.9504 46.1153 34.394 47.7408 38.1095L48.6569 37.7087ZM46.3352 24.7969C46.3502 19.7395 47.1383 15.4787 48.6788 11.9978L47.7644 11.5931C46.1533 15.2334 45.3505 19.6393 45.3352 24.794L46.3352 24.7969ZM48.6784 11.9987C50.2347 8.50071 52.4319 5.86229 55.263 4.05801L54.7256 3.21471C51.7082 5.1377 49.3903 7.93868 47.7648 11.5922L48.6784 11.9987ZM55.2636 4.05766C58.1101 2.23823 61.5132 1.31818 65.4943 1.31818V0.31818C61.3542 0.31818 57.7573 1.27692 54.725 3.21507L55.2636 4.05766ZM65.4943 1.31818C69.4755 1.31818 72.8785 2.23823 75.725 4.05766L76.2636 3.21507C73.2313 1.27692 69.6344 0.31818 65.4943 0.31818V1.31818ZM75.7276 4.05926C78.5885 5.86388 80.8 8.50208 82.3557 11.9987L83.2693 11.5922C81.6432 7.93731 79.3092 5.13612 76.2611 3.21346L75.7276 4.05926ZM82.3557 11.9987C83.9107 15.4937 84.6911 19.7533 84.6761 24.794L85.6761 24.7969C85.6914 19.6558 84.8961 15.2487 83.2693 11.5922L82.3557 11.9987ZM84.6761 24.7955C84.6761 29.8669 83.8882 34.1737 82.3317 37.7314L83.2478 38.1322C84.8732 34.4172 85.6761 29.9665 85.6761 24.7955H84.6761ZM82.3317 37.7314C80.7745 41.2907 78.5684 43.9901 75.7205 45.8544L76.2682 46.6911C79.2991 44.7069 81.6232 41.8457 83.2478 38.1322L82.3317 37.7314ZM75.721 45.854C72.8909 47.7017 69.4896 48.6364 65.4943 48.6364V49.6364C69.6506 49.6364 73.2493 48.6619 76.2677 46.6914L75.721 45.854ZM65.4943 40.4318C68.1292 40.4318 70.2378 39.0722 71.808 36.4868L70.9533 35.9677C69.5236 38.3217 67.7079 39.4318 65.4943 39.4318V40.4318ZM71.8087 36.4857C73.38 33.8828 74.1232 29.9608 74.108 24.794L73.108 24.7969C73.123 29.9029 72.3814 33.602 70.9526 35.9689L71.8087 36.4857ZM74.108 24.7955C74.108 21.4027 73.7647 18.5752 73.0625 16.3281L72.108 16.6264C72.7694 18.743 73.108 21.4609 73.108 24.7955H74.108ZM73.0628 16.3291C72.3647 14.0797 71.3794 12.3508 70.0762 11.1942L69.4124 11.9421C70.5335 12.9371 71.4422 14.4809 72.1077 16.6255L73.0628 16.3291ZM70.0762 11.1942C68.7726 10.0372 67.2378 9.45454 65.4943 9.45454V10.4545C66.9933 10.4545 68.2918 10.9476 69.4124 11.9421L70.0762 11.1942ZM65.4943 9.45454C62.8759 9.45454 60.7821 10.7976 59.2263 13.3537L60.0805 13.8736C61.4944 11.5508 63.2946 10.4545 65.4943 10.4545V9.45454ZM59.227 13.3525C57.6701 15.8944 56.9187 19.7332 56.9034 24.7939L57.9034 24.797C57.9185 19.7971 58.667 16.1814 60.0798 13.8748L59.227 13.3525ZM56.9034 24.7932C56.8881 28.2311 57.216 31.1097 57.9014 33.4152L58.86 33.1302C58.212 30.9509 57.8884 28.178 57.9034 24.7977L56.9034 24.7932ZM57.9023 33.4182C58.6001 35.713 59.5922 37.4796 60.9096 38.6669L61.5791 37.924C60.4419 36.8992 59.5249 35.3173 58.8591 33.1273L57.9023 33.4182ZM60.9121 38.6692C62.2287 39.8394 63.7628 40.4318 65.4943 40.4318V39.4318C64.0137 39.4318 62.7145 38.9333 61.5765 37.9217L60.9121 38.6692ZM91.6193 48H91.1193V48.5H91.6193V48ZM91.6193 39.9091L91.29 39.5329L91.1193 39.6823V39.9091H91.6193ZM108.597 25.0455L108.926 25.4217L108.932 25.4162L108.597 25.0455ZM111.847 21.8864L112.212 22.2281L112.214 22.2253L111.847 21.8864ZM113.892 18.9773L114.342 19.1952L114.343 19.1925L113.892 18.9773ZM113.756 12.4773L113.328 12.7366L113.33 12.7397L113.756 12.4773ZM111.438 10.3409L111.211 10.7867L111.438 10.3409ZM104.665 10.3864L104.899 10.828L104.905 10.825L104.665 10.3864ZM102.392 12.6364L101.955 12.3941L101.952 12.3993L102.392 12.6364ZM101.597 16.2273V16.7273H102.097V16.2273H101.597ZM90.9375 16.2273H90.4375V16.7273H90.9375V16.2273ZM93.0739 8.02273L93.4991 8.28571L93.0739 8.02273ZM99.0739 2.70454L99.2911 3.15489L99.2922 3.15436L99.0739 2.70454ZM117.301 2.59091L117.508 2.13554L117.301 2.59091ZM123.347 7.54545L122.931 7.82418L122.934 7.82758L123.347 7.54545ZM124.438 20.1591L123.975 19.9699L124.438 20.1591ZM120.597 25.9318L120.221 25.602L120.219 25.6035L120.597 25.9318ZM112.778 33.5L112.45 33.1228L112.445 33.1275L112.439 33.1325L112.778 33.5ZM107.21 38.6364L106.871 38.2688L106.71 38.4173V38.6364H107.21ZM107.21 38.9318H106.71V39.4318H107.21V38.9318ZM126.074 38.9318H126.574V38.4318H126.074V38.9318ZM126.074 48V48.5H126.574V48H126.074ZM92.1193 48V39.9091H91.1193V48H92.1193ZM91.9487 40.2853L108.926 25.4216L108.267 24.6693L91.29 39.5329L91.9487 40.2853ZM108.932 25.4162C110.212 24.2581 111.306 23.1953 112.212 22.2281L111.482 21.5446C110.6 22.4865 109.527 23.5298 108.261 24.6747L108.932 25.4162ZM112.214 22.2253C113.134 21.2273 113.847 20.2176 114.342 19.1952L113.442 18.7593C112.998 19.6763 112.347 20.6061 111.479 21.5475L112.214 22.2253ZM114.343 19.1925C114.847 18.1367 115.097 16.9945 115.097 15.7727H114.097C114.097 16.854 113.877 17.8481 113.441 18.762L114.343 19.1925ZM115.097 15.7727C115.097 14.4113 114.8 13.2177 114.181 12.2148L113.33 12.7397C113.833 13.555 114.097 14.5584 114.097 15.7727H115.097ZM114.183 12.218C113.573 11.2122 112.73 10.4363 111.664 9.89507L111.211 10.7867C112.115 11.2455 112.817 11.8939 113.328 12.7366L114.183 12.218ZM111.664 9.89507C110.599 9.3544 109.391 9.09091 108.051 9.09091V10.0909C109.257 10.0909 110.306 10.3274 111.211 10.7867L111.664 9.89507ZM108.051 9.09091C106.693 9.09091 105.479 9.37095 104.425 9.94768L104.905 10.825C105.789 10.3412 106.833 10.0909 108.051 10.0909V9.09091ZM104.43 9.94481C103.373 10.5066 102.546 11.3269 101.955 12.3941L102.829 12.8786C103.329 11.9762 104.017 11.2965 104.899 10.8279L104.43 9.94481ZM101.952 12.3993C101.373 13.4735 101.097 14.7565 101.097 16.2273H102.097C102.097 14.8799 102.35 13.7689 102.832 12.8734L101.952 12.3993ZM101.597 15.7273H90.9375V16.7273H101.597V15.7273ZM91.4375 16.2273C91.4375 13.1375 92.1315 10.4972 93.4991 8.28571L92.6486 7.75974C91.1677 10.1544 90.4375 12.9837 90.4375 16.2273H91.4375ZM93.4991 8.28571C94.8704 6.0683 96.7961 4.35838 99.2911 3.15489L98.8566 2.2542C96.2002 3.53556 94.1258 5.37109 92.6486 7.75974L93.4991 8.28571ZM99.2922 3.15436C101.803 1.93548 104.734 1.31818 108.097 1.31818V0.31818C104.611 0.31818 101.526 0.958457 98.8555 2.25473L99.2922 3.15436ZM108.097 1.31818C111.572 1.31818 114.567 1.89991 117.095 3.04627L117.508 2.13554C114.823 0.918271 111.682 0.31818 108.097 0.31818V1.31818ZM117.095 3.04627C119.627 4.19446 121.565 5.78906 122.931 7.82417L123.762 7.26674C122.28 5.05942 120.188 3.35099 117.508 2.13554L117.095 3.04627ZM122.934 7.82758C124.311 9.8428 125.006 12.1894 125.006 14.8864H126.006C126.006 12.0076 125.261 9.46023 123.759 7.26332L122.934 7.82758ZM125.006 14.8864C125.006 16.5903 124.664 18.2838 123.975 19.9699L124.9 20.3483C125.635 18.5495 126.006 16.7279 126.006 14.8864H125.006ZM123.975 19.9699C123.291 21.6424 122.049 23.5193 120.221 25.602L120.972 26.2616C122.841 24.1322 124.16 22.1606 124.9 20.3483L123.975 19.9699ZM120.219 25.6035C118.408 27.685 115.821 30.1907 112.45 33.1228L113.107 33.8772C116.494 30.9305 119.119 28.3908 120.974 26.2601L120.219 25.6035ZM112.439 33.1325L106.871 38.2688L107.549 39.0039L113.117 33.8675L112.439 33.1325ZM106.71 38.6364V38.9318H107.71V38.6364H106.71ZM107.21 39.4318H126.074V38.4318H107.21V39.4318ZM125.574 38.9318V48H126.574V38.9318H125.574ZM126.074 47.5H91.6193V48.5H126.074V47.5ZM141.182 46.25L140.906 46.6673L140.908 46.6683L141.182 46.25ZM134.386 37.9091L133.928 38.1095L133.929 38.1102L134.386 37.9091ZM132.023 24.7955L131.523 24.794L132.023 24.7955ZM134.409 11.7955L133.952 11.5922L133.952 11.5931L134.409 11.7955ZM141.182 3.63636L141.451 4.05802L141.451 4.05766L141.182 3.63636ZM162.182 3.63636L161.913 4.05766L161.915 4.05926L162.182 3.63636ZM169 11.7955L169.457 11.5922L169 11.7955ZM171.364 24.7955L170.864 24.794V24.7955H171.364ZM168.977 37.9318L168.519 37.7314L168.977 37.9318ZM162.182 46.2727L162.455 46.6914L162.456 46.6911L162.182 46.2727ZM157.568 36.2273L157.996 36.4868L157.996 36.4857L157.568 36.2273ZM159.795 24.7955H159.295V24.7969L159.795 24.7955ZM158.773 16.4773L158.295 16.6255L158.295 16.6264L158.773 16.4773ZM155.932 11.5682L156.264 11.1942L155.932 11.5682ZM145.841 13.6136L146.267 13.8748L146.268 13.8736L145.841 13.6136ZM143.591 24.7955L144.091 24.7977V24.797L143.591 24.7955ZM144.568 33.2727L144.089 33.4152L144.09 33.4182L144.568 33.2727ZM147.432 38.2955L147.097 38.6669L147.1 38.6692L147.432 38.2955ZM151.682 48.6364C147.703 48.6364 144.302 47.6947 141.456 45.8317L140.908 46.6683C143.941 48.6538 147.539 49.6364 151.682 49.6364V48.6364ZM141.457 45.8327C138.608 43.9526 136.401 41.2523 134.844 37.708L133.929 38.1102C135.553 41.8083 137.877 44.6686 140.906 46.6673L141.457 45.8327ZM134.844 37.7087C133.288 34.1514 132.508 29.8526 132.523 24.7969L131.523 24.794C131.507 29.9504 132.303 34.394 133.928 38.1095L134.844 37.7087ZM132.523 24.7969C132.538 19.7395 133.326 15.4787 134.866 11.9978L133.952 11.5931C132.341 15.2334 131.538 19.6393 131.523 24.794L132.523 24.7969ZM134.866 11.9987C136.422 8.50071 138.619 5.86229 141.451 4.05801L140.913 3.21471C137.896 5.1377 135.578 7.93868 133.952 11.5922L134.866 11.9987ZM141.451 4.05766C144.298 2.23823 147.701 1.31818 151.682 1.31818V0.31818C147.542 0.31818 143.945 1.27692 140.913 3.21507L141.451 4.05766ZM151.682 1.31818C155.663 1.31818 159.066 2.23823 161.913 4.05766L162.451 3.21507C159.419 1.27692 155.822 0.31818 151.682 0.31818V1.31818ZM161.915 4.05926C164.776 5.86388 166.987 8.50208 168.543 11.9987L169.457 11.5922C167.831 7.93731 165.497 5.13612 162.449 3.21346L161.915 4.05926ZM168.543 11.9987C170.098 15.4937 170.879 19.7533 170.864 24.794L171.864 24.7969C171.879 19.6558 171.084 15.2487 169.457 11.5922L168.543 11.9987ZM170.864 24.7955C170.864 29.8669 170.076 34.1737 168.519 37.7314L169.435 38.1322C171.061 34.4172 171.864 29.9665 171.864 24.7955H170.864ZM168.519 37.7314C166.962 41.2907 164.756 43.9901 161.908 45.8544L162.456 46.6911C165.487 44.7069 167.811 41.8457 169.435 38.1322L168.519 37.7314ZM161.908 45.854C159.078 47.7017 155.677 48.6364 151.682 48.6364V49.6364C155.838 49.6364 159.437 48.6619 162.455 46.6914L161.908 45.854ZM151.682 40.4318C154.317 40.4318 156.425 39.0722 157.996 36.4868L157.141 35.9677C155.711 38.3217 153.895 39.4318 151.682 39.4318V40.4318ZM157.996 36.4857C159.567 33.8828 160.311 29.9608 160.295 24.794L159.295 24.7969C159.311 29.9029 158.569 33.602 157.14 35.9689L157.996 36.4857ZM160.295 24.7955C160.295 21.4027 159.952 18.5752 159.25 16.3281L158.295 16.6264C158.957 18.743 159.295 21.4609 159.295 24.7955H160.295ZM159.25 16.3291C158.552 14.0797 157.567 12.3508 156.264 11.1942L155.6 11.9421C156.721 12.9371 157.63 14.4809 158.295 16.6255L159.25 16.3291ZM156.264 11.1942C154.96 10.0372 153.425 9.45454 151.682 9.45454V10.4545C153.181 10.4545 154.479 10.9476 155.6 11.9421L156.264 11.1942ZM151.682 9.45454C149.063 9.45454 146.97 10.7976 145.414 13.3537L146.268 13.8736C147.682 11.5508 149.482 10.4545 151.682 10.4545V9.45454ZM145.415 13.3525C143.858 15.8944 143.106 19.7332 143.091 24.7939L144.091 24.797C144.106 19.7971 144.854 16.1814 146.267 13.8748L145.415 13.3525ZM143.091 24.7932C143.076 28.2311 143.404 31.1097 144.089 33.4152L145.047 33.1302C144.4 30.9509 144.076 28.178 144.091 24.7977L143.091 24.7932ZM144.09 33.4182C144.788 35.713 145.78 37.4796 147.097 38.6669L147.767 37.924C146.629 36.8992 145.712 35.3173 145.047 33.1273L144.09 33.4182ZM147.1 38.6692C148.416 39.8394 149.95 40.4318 151.682 40.4318V39.4318C150.201 39.4318 148.902 38.9333 147.764 37.9217L147.1 38.6692Z" fill="white"/>
</g>
<defs>
<filter id="filter0_d_1_5" x="0.75" y="0.81818" width="174.636" height="56.3182" filterUnits="userSpaceOnUse" color-interpolation-filters="sRGB">
<feFlood flood-opacity="0" result="BackgroundImageFix"/>
<feColorMatrix in="SourceAlpha" type="matrix" values="0 0 0 0 0 0 0 0 0 0 0 0 0 0 0 0 0 0 127 0" result="hardAlpha"/>
<feOffset dy="4"/>
<feGaussianBlur stdDeviation="2"/>
<feComposite in2="hardAlpha" operator="out"/>
<feColorMatrix type="matrix" values="0 0 0 0 0 0 0 0 0 0 0 0 0 0 0 0 0 0 0.25 0"/>
<feBlend mode="normal" in2="BackgroundImageFix" result="effect1_dropShadow_1_5"/>
<feBlend mode="normal" in="SourceGraphic" in2="effect1_dropShadow_1_5" result="shape"/>
</filter>
</defs>
</svg>
