<?xml version="1.0" standalone="no"?>
<!DOCTYPE svg PUBLIC "-//W3C//DTD SVG 20010904//EN"
 "http://www.w3.org/TR/2001/REC-SVG-20010904/DTD/svg10.dtd">
<svg version="1.0" xmlns="http://www.w3.org/2000/svg"
 width="300.000000pt" height="533.000000pt" viewBox="0 0 300.000000 533.000000"
 preserveAspectRatio="xMidYMid meet">
<metadata>
Created by potrace 1.10, written by Peter Selinger 2001-2011
</metadata>
<g transform="translate(0.000000,533.000000) scale(0.100000,-0.100000)"
fill="#000000" stroke="none">
<path d="M1310 4059 c-86 -15 -157 -52 -176 -93 -10 -19 -37 -48 -63 -64 -103
-67 -208 -195 -251 -307 -33 -85 -34 -256 -1 -408 23 -106 23 -109 6 -179 -38
-153 -20 -228 92 -380 85 -116 93 -133 93 -190 0 -51 -32 -218 -42 -218 -4 0
-14 13 -22 28 -8 15 -33 47 -55 70 -33 34 -48 42 -76 42 -25 0 -38 5 -42 18
-9 24 -23 32 -58 32 -16 0 -41 10 -54 21 -24 19 -24 21 -8 54 9 19 19 57 23
86 5 37 16 61 37 86 35 40 29 66 -18 71 -22 3 -37 -6 -75 -47 l-47 -50 -102
110 c-56 60 -113 112 -126 115 -30 7 -85 -21 -85 -44 0 -10 -4 -22 -10 -28 -5
-5 -11 -32 -12 -60 -2 -48 0 -53 84 -164 47 -63 100 -130 117 -148 24 -25 30
-39 25 -58 -4 -17 1 -34 19 -58 24 -31 25 -35 13 -71 -17 -48 -7 -84 33 -130
16 -19 48 -61 70 -94 66 -97 216 -253 274 -284 67 -37 116 -33 215 16 40 20
79 37 87 37 20 0 55 -62 55 -97 0 -17 -11 -47 -25 -67 -24 -35 -24 -36 -3 -36
47 0 118 65 118 109 0 80 96 -38 115 -142 4 -20 11 -37 15 -37 9 0 50 92 50
113 0 25 12 26 51 6 43 -21 50 -44 19 -54 -11 -4 -18 -11 -15 -16 8 -12 72
-12 95 1 15 8 24 6 39 -9 11 -11 38 -29 60 -41 l40 -20 7 35 c3 19 12 35 19
35 8 0 28 12 46 27 l32 27 36 -43 c55 -67 307 -289 346 -305 20 -9 67 -40 106
-71 40 -31 81 -55 94 -55 13 0 27 -4 30 -10 3 -5 9 -10 13 -10 8 0 7 1374 -2
1395 -3 8 -1 40 5 71 9 50 8 58 -9 78 -13 14 -21 40 -24 79 -4 44 -17 82 -51
150 -45 89 -46 95 -50 197 -4 119 -10 136 -107 280 -78 115 -85 130 -109 244
-29 131 -62 198 -138 273 -68 67 -177 127 -288 157 -120 32 -322 43 -435 25z
m255 -29 c113 -13 246 -45 299 -72 49 -24 136 -87 136 -97 0 -4 -17 -5 -37 -3
-36 4 -37 3 -18 -11 11 -8 22 -12 25 -7 7 11 42 8 55 -5 57 -57 89 -126 117
-255 23 -108 52 -169 127 -270 18 -25 46 -72 62 -105 26 -53 29 -70 28 -150
-1 -87 0 -93 44 -182 41 -85 46 -101 51 -190 4 -54 14 -132 23 -173 14 -69 25
-330 13 -330 -3 0 -13 7 -24 15 -16 12 -17 22 -11 74 4 37 3 61 -3 61 -5 0
-12 -24 -15 -52 -3 -29 -18 -89 -34 -133 -23 -68 -27 -95 -27 -185 0 -58 6
-118 13 -134 17 -43 3 -46 -30 -6 -16 19 -36 42 -43 50 -12 13 -29 46 -75 150
-7 14 -9 16 -6 5 16 -54 16 -143 0 -197 -9 -32 -19 -58 -23 -58 -4 0 -14 31
-24 69 -9 38 -30 99 -47 136 -17 37 -37 86 -43 109 -17 60 -15 212 5 367 44
346 0 630 -126 818 -77 114 -105 172 -158 331 -17 52 -38 107 -45 122 -21 41
-74 118 -82 118 -4 0 -20 12 -37 26 -36 32 -159 93 -200 101 -85 15 -139 8
-157 -20 -16 -25 -7 -30 14 -8 19 22 27 23 92 18 60 -4 137 -28 156 -47 3 -3
16 -11 30 -18 40 -21 118 -95 125 -119 6 -21 4 -22 -25 -11 -48 16 -232 4
-327 -23 -95 -25 -109 -20 -116 39 -4 33 -4 33 -2 -3 2 -22 6 -50 10 -61 5
-16 2 -23 -12 -26 -10 -3 -27 -9 -37 -14 -14 -5 -17 -4 -12 4 4 7 3 12 -3 12
-24 0 -43 -58 -61 -185 -14 -96 -15 -103 -23 -111 -4 -4 -7 -16 -7 -27 0 -27
-67 -151 -99 -183 -25 -26 -25 -27 -3 -22 19 5 22 2 22 -22 0 -16 3 -35 6 -44
12 -31 -12 -16 -31 20 -10 20 -30 44 -44 55 -22 17 -26 18 -41 4 -9 -8 -21
-15 -27 -15 -6 0 -13 -6 -16 -12 -5 -16 -24 72 -36 168 -8 67 -1 205 14 249
20 61 71 148 116 198 28 32 53 56 55 54 3 -2 -7 -28 -20 -58 -14 -30 -27 -70
-30 -89 -12 -95 -37 -268 -42 -290 -3 -16 -2 -21 4 -15 5 6 17 62 26 125 27
189 45 256 80 296 22 25 42 37 67 40 33 5 37 3 43 -23 8 -32 54 -103 67 -103
5 0 -2 16 -15 35 -52 76 -59 197 -14 237 65 57 203 78 383 58z m-435 -164 c0
-20 -5 -25 -28 -24 -15 1 -38 -4 -50 -11 -13 -7 -22 -8 -22 -2 0 5 8 12 19 16
10 3 26 14 36 25 25 27 45 25 45 -4z m540 -137 c36 -5 70 -15 76 -22 6 -7 30
-67 53 -135 22 -67 48 -133 57 -147 19 -29 13 -31 -22 -9 -31 21 -91 14 -166
-19 -49 -22 -77 -51 -64 -65 3 -2 29 5 58 16 133 53 207 50 241 -9 12 -22 15
-35 7 -43 -7 -7 -10 -5 -10 6 0 32 -132 38 -197 9 -44 -20 -67 -48 -78 -94 -7
-24 -3 -29 31 -43 32 -14 46 -15 82 -5 23 6 62 11 86 11 37 0 48 5 70 31 25
30 30 41 27 67 -5 37 22 -1 69 -99 l53 -111 -10 -124 c-10 -121 -12 -127 -48
-180 -49 -71 -173 -186 -229 -213 -24 -12 -71 -26 -104 -32 -52 -9 -71 -8
-138 11 -107 29 -236 94 -275 138 -42 48 -152 280 -172 362 -29 119 -28 157 2
204 45 68 71 140 86 243 8 54 15 110 15 125 0 16 7 31 18 37 49 26 236 81 302
89 105 13 107 13 180 1z m191 -457 l32 -29 -21 -21 c-13 -13 -35 -22 -54 -22
-29 0 -30 1 -15 18 10 10 17 25 17 32 0 7 -7 22 -17 32 -15 17 -15 18 5 18 12
0 36 -13 53 -28z m-103 1 c-2 -10 -10 -18 -18 -18 -8 0 -16 8 -18 18 -2 12 3
17 18 17 15 0 20 -5 18 -17z m-37 -66 c10 -6 19 -15 19 -19 0 -12 -48 -10 -71
3 -22 12 -18 40 10 73 15 18 16 17 19 -13 2 -18 12 -37 23 -44z m-774 -64 c4
-10 14 -28 23 -40 13 -16 16 -35 13 -65 -2 -24 1 -50 6 -58 14 -21 25 -5 12
18 -13 24 -15 62 -3 62 12 0 35 -42 54 -100 10 -30 27 -71 38 -91 24 -44 24
-49 5 -49 -25 0 -115 90 -140 140 -32 64 -48 127 -40 167 6 36 22 43 32 16z
m-57 -100 c1 -100 162 -284 219 -249 5 4 26 -25 47 -64 21 -40 55 -86 77 -106
73 -62 237 -129 344 -141 33 -4 59 -13 70 -25 16 -18 16 -20 -18 -51 -20 -18
-57 -50 -84 -72 -26 -22 -53 -45 -59 -50 -6 -6 -27 -16 -46 -22 -171 -54 -288
-92 -304 -98 -16 -7 -18 -4 -12 26 4 25 4 29 -3 14 -5 -11 -12 -27 -14 -37 -7
-21 -60 -32 -86 -18 -24 12 -28 52 -10 97 22 56 35 166 27 225 -7 50 -18 71
-81 160 -41 57 -82 118 -91 137 -27 52 -31 127 -11 219 18 81 35 108 35 55z
m1197 -131 c2 -9 3 -47 4 -84 0 -37 4 -70 8 -72 7 -5 8 -75 2 -123 -2 -20 -19
-15 -26 7 -5 15 -12 19 -31 14 -23 -6 -74 17 -74 34 0 4 13 22 30 40 33 38 56
96 65 165 6 47 16 55 22 19z m-1680 -139 c28 -32 74 -82 101 -112 50 -53 50
-54 31 -74 -20 -22 -26 -77 -9 -77 6 0 10 11 10 24 0 14 17 42 43 69 23 24 52
56 64 71 12 14 31 26 43 26 21 0 21 0 -4 -30 -14 -17 -28 -47 -31 -68 -3 -20
-11 -57 -18 -80 -10 -38 -17 -46 -51 -57 -21 -7 -52 -26 -68 -42 l-30 -28 -35
40 c-59 67 -193 249 -193 263 0 8 4 12 9 10 16 -6 103 -113 116 -143 l13 -30
11 26 c5 15 23 42 40 61 l30 35 -47 54 c-26 29 -62 68 -80 86 -28 27 -30 33
-14 33 10 0 41 -26 69 -57z m-24 -38 c49 -57 65 -81 57 -89 -8 -8 -18 -3 -37
19 -14 17 -47 54 -75 83 -27 29 -46 57 -42 63 10 18 27 4 97 -76z m-27 -46
c44 -53 60 -79 54 -89 -7 -11 -14 -8 -31 15 -13 17 -45 52 -71 79 -29 29 -47
55 -43 64 8 22 25 10 91 -69z m1622 -53 c26 -16 47 -22 65 -19 31 6 33 -3 13
-50 -40 -97 -233 -209 -326 -190 -40 7 -55 27 -35 43 14 12 13 16 -7 37 -19
20 -20 25 -8 33 8 5 23 10 33 10 38 0 151 77 201 137 11 13 21 23 23 23 2 0
20 -11 41 -24z m96 -176 c-32 -215 -35 -267 -19 -336 8 -36 35 -112 59 -169
49 -115 68 -194 59 -249 -3 -20 -2 -36 2 -36 22 0 82 112 91 169 5 34 9 39 20
30 8 -6 14 -17 14 -23 0 -7 23 -35 51 -64 75 -74 146 -99 101 -35 -19 28 -36
89 -48 175 -6 46 19 204 38 242 9 17 13 13 39 -30 22 -38 28 -57 24 -84 -8
-49 -7 -632 0 -652 3 -8 -5 -44 -20 -79 -14 -35 -28 -81 -32 -101 -3 -21 -7
-38 -10 -38 -2 0 -35 25 -73 55 -38 31 -72 55 -75 55 -3 0 -9 0 -15 0 -16 0
-238 199 -317 284 -87 93 -135 164 -214 318 -59 116 -157 243 -175 225 -4 -4
3 -18 16 -32 12 -13 20 -31 17 -39 -8 -20 -113 -79 -317 -179 -305 -149 -332
-157 -403 -121 -36 19 -180 168 -244 253 -23 31 -58 75 -77 99 -40 48 -51 80
-42 117 4 17 13 25 29 25 29 0 42 9 72 50 32 44 32 62 0 24 -14 -16 -25 -32
-25 -35 0 -3 -11 -11 -24 -17 -23 -10 -27 -7 -56 39 -35 54 -35 57 20 106 41
37 57 37 99 4 24 -19 50 -31 69 -31 34 0 52 -18 31 -30 -8 -6 1 -11 27 -15 21
-3 50 -9 64 -13 26 -8 110 -105 140 -163 11 -20 28 -39 38 -41 21 -6 32 -50
32 -130 0 -27 4 -48 9 -48 11 0 24 91 19 139 -3 33 -2 34 57 51 33 10 112 35
175 55 63 21 131 39 150 40 19 2 36 7 37 12 2 6 39 42 83 82 l80 72 29 -22
c83 -61 303 29 382 157 11 19 23 34 24 32 2 -2 -3 -46 -11 -98z m-422 -457 c8
-10 44 -75 80 -144 36 -69 82 -149 102 -177 l37 -50 -28 -26 c-34 -32 -41 -32
-45 -3 -3 17 -7 13 -16 -20 -15 -49 -29 -53 -70 -18 -20 17 -31 38 -36 65 -3
22 -11 40 -16 40 -6 0 -6 -9 0 -26 13 -33 13 -30 -12 -54 l-22 -20 -14 31 c-9
19 -33 39 -62 54 -45 23 -47 25 -48 70 -1 26 -9 59 -17 73 -14 26 -15 26 -9
-18 3 -25 8 -51 10 -59 6 -18 -17 -121 -26 -121 -4 0 -15 18 -25 40 -18 39
-85 110 -104 110 -5 0 -17 7 -26 16 -9 9 -19 14 -22 10 -4 -3 -1 -12 5 -18 17
-17 15 -54 -5 -91 l-17 -32 -6 45 c-3 25 -15 60 -28 77 -12 17 -22 34 -22 37
0 11 36 6 49 -6 11 -11 12 -9 7 9 -6 19 0 25 41 44 43 19 148 71 243 119 19
10 44 28 54 39 23 26 29 26 48 4z"/>
<path d="M1570 3988 c30 -12 69 -22 85 -23 17 -1 46 -9 65 -18 19 -8 39 -13
44 -9 5 3 -13 15 -40 27 -27 12 -51 18 -54 14 -3 -5 -29 0 -58 11 -29 11 -62
20 -75 20 -13 -1 0 -9 33 -22z"/>
<path d="M1790 3913 c0 -4 16 -19 35 -33 19 -14 54 -53 77 -88 39 -59 42 -69
45 -145 5 -104 12 -149 22 -143 5 3 5 27 0 53 -4 27 -10 82 -13 123 -5 86 -27
136 -77 177 -19 15 -36 30 -39 34 -10 12 -50 30 -50 22z"/>
<path d="M1748 3817 c12 -13 22 -29 22 -35 0 -7 5 -12 10 -12 6 0 10 2 10 5 0
12 -44 65 -54 65 -5 0 0 -10 12 -23z"/>
<path d="M1813 3800 c6 -16 17 -30 23 -30 7 0 21 -3 31 -7 11 -4 6 7 -16 30
-42 45 -53 47 -38 7z"/>
<path d="M868 3528 c-23 -70 -30 -161 -19 -223 8 -45 9 -38 10 57 1 68 7 124
17 153 8 26 14 51 12 56 -2 6 -11 -14 -20 -43z"/>
<path d="M2002 3393 c36 -74 64 -123 75 -127 21 -8 15 19 -10 46 -13 14 -29
39 -36 57 -8 17 -18 31 -23 31 -5 0 -8 -3 -6 -7z"/>
<path d="M2120 3375 c0 -19 52 -96 73 -106 20 -11 21 -11 7 8 -53 72 -80 105
-80 98z"/>
<path d="M1974 3350 c10 -35 38 -101 43 -97 5 5 -28 101 -39 112 -7 7 -8 1 -4
-15z"/>
<path d="M883 3235 c0 -33 2 -45 4 -27 2 18 2 45 0 60 -2 15 -4 0 -4 -33z"/>
<path d="M2045 3250 c12 -40 34 -78 35 -58 0 10 -9 32 -21 50 -17 28 -19 29
-14 8z"/>
<path d="M2427 2428 c-5 -16 3 -48 12 -48 4 0 8 14 8 30 0 30 -12 41 -20 18z"/>
<path d="M1225 3315 c-22 -8 -41 -15 -41 -15 -7 -1 -54 -83 -50 -87 3 -3 21 8
40 25 44 38 91 52 179 52 67 0 78 5 55 28 -17 17 -134 14 -183 -3z"/>
<path d="M1260 3226 c-58 -22 -123 -63 -108 -69 7 -3 2 -6 -12 -7 -23 -1 -24
-2 -8 -14 10 -7 15 -16 12 -19 -8 -8 67 -57 87 -57 9 0 33 7 52 15 20 8 52 15
72 15 26 0 45 9 72 33 l36 33 -18 28 c-35 53 -109 70 -185 42z m147 -40 l28
-24 -24 -26 c-14 -14 -34 -26 -45 -26 -15 0 -17 3 -8 12 7 7 12 24 12 38 0 14
-5 31 -12 38 -24 24 20 13 49 -12z m-89 -3 c5 -18 -28 -29 -38 -12 -5 7 -6 17
-3 22 7 12 35 5 41 -10z m-64 -18 c-4 -18 0 -30 20 -48 l26 -25 -32 -5 c-65
-9 -87 26 -47 77 26 33 41 34 33 1z"/>
<path d="M1600 3110 c0 -25 29 -84 37 -76 7 7 -19 96 -29 96 -4 0 -8 -9 -8
-20z"/>
<path d="M1657 3004 c-3 -4 -2 -15 4 -25 8 -16 4 -21 -28 -35 -69 -31 -150
-20 -127 17 3 5 1 9 -4 9 -15 0 -20 -23 -11 -48 8 -20 14 -23 38 -17 17 3 32
2 36 -4 10 -17 40 -13 60 9 10 11 26 20 36 20 23 0 33 33 19 60 -12 22 -14 23
-23 14z"/>
<path d="M1795 2882 c-12 -11 -119 -49 -160 -57 -39 -8 -203 -23 -234 -21 -13
0 -26 -5 -28 -11 -3 -7 2 -13 9 -13 8 0 27 -14 44 -31 114 -122 317 -83 384
72 11 27 25 49 30 49 6 0 10 5 10 10 0 12 -42 13 -55 2z m-7 -54 c-17 -27
-114 -62 -213 -78 -72 -12 -117 -7 -134 14 -9 11 7 15 81 20 60 5 120 17 173
35 105 37 112 37 93 9z"/>
<path d="M1342 2320 c0 -35 13 -77 20 -65 3 6 0 28 -7 50 -10 30 -13 34 -13
15z"/>
<path d="M2000 2331 c0 -7 -4 -10 -9 -7 -5 3 -11 -1 -15 -9 -3 -8 -17 -15 -31
-15 -24 0 -24 -1 -8 -20 16 -18 18 -19 36 -2 24 21 40 52 33 60 -3 3 -6 0 -6
-7z"/>
<path d="M1984 2252 c-27 -32 -33 -35 -47 -24 -9 8 -18 23 -20 35 -4 19 -4 18
-6 -4 -1 -18 7 -32 24 -43 25 -16 27 -16 55 13 17 16 30 37 30 45 0 21 0 21
-36 -22z"/>
</g>
</svg>
